<svg width="80" height="80" fill="none" xmlns="http://www.w3.org/2000/svg"><path fill-rule="evenodd" clip-rule="evenodd" d="M63.187 15.231a4.25 4.25 0 00-4.25-4.25H8.847l-.206.005a4.25 4.25 0 00-4.044 4.245v37.927l.005.206a4.25 4.25 0 004.245 4.044.75.75 0 000-1.5 2.75 2.75 0 01-2.75-2.75V15.231l.005-.167a2.75 2.75 0 012.745-2.583h50.09l.168.006a2.75 2.75 0 012.582 2.744.75.75 0 101.5 0zm1.841 1.556a4.25 4.25 0 014.25 4.25.75.75 0 01-1.5 0 2.75 2.75 0 00-2.582-2.745l-.168-.005h-50.09a2.75 2.75 0 00-2.746 2.582l-.005.168v37.926a2.75 2.75 0 002.75 2.75.75.75 0 010 1.5 4.25 4.25 0 01-4.245-4.044l-.005-.206V21.037a4.25 4.25 0 014.045-4.245l.206-.005h50.09zm6.019 5.93a4.497 4.497 0 014.46 4.053l.016.215.005.213v37.465a4.496 4.496 0 01-4.053 4.46l-.215.016-.213.006H21.384a4.496 4.496 0 01-4.46-4.054l-.016-.215-.005-.213v-37.59a4.37 4.37 0 014.356-4.356h49.788zm-.125 46.178h.122l.207-.005a4.246 4.246 0 004.022-4.023l.005-.204V27.2v37.338a4.368 4.368 0 01-4.356 4.357zM18.248 33.491h-.125v.125l.125-.125zm55.81 25.011v6.035a3.14 3.14 0 01-3.102 3.137H21.384l-.174-.005-.175-.015a3.016 3.016 0 01-2.662-2.992v-30.92h55.685v24.761zm-9.024-14.315a4.046 4.046 0 10-8.092 0l.007.233.022.25c.099.83.45 1.6 1.004 2.217l.07.074-4.357 4.355-.112-.076-.22-.132a3.984 3.984 0 00-1.952-.511l-.234.007-.232.02a4.024 4.024 0 00-2.252 1.026l-.09.085-5.74-4.1.051-.106.09-.223a3.9 3.9 0 00.255-1.376 4.045 4.045 0 10-8.091 0l.007.233.02.23a4.02 4.02 0 001.016 2.245l.077.082-4.43 5.17-.103-.069-.216-.125a3.993 3.993 0 00-1.91-.485 4.046 4.046 0 104.046 4.046l-.007-.239-.026-.266a4.01 4.01 0 00-.65-1.721l-.08-.114 4.58-5.343.117.055.223.09c.448.17.91.257 1.381.257l.234-.007.232-.02a4.021 4.021 0 002.25-1.026l.09-.086 5.74 4.1-.05.107-.09.223a3.903 3.903 0 00-.254 1.375 4.046 4.046 0 108.092 0l-.009-.257-.024-.254a4.012 4.012 0 00-.605-1.65l-.085-.123 4.532-4.531.123.057.223.092a3.9 3.9 0 001.383.257 4.045 4.045 0 004.046-4.045zm-4.046-3.796a3.796 3.796 0 00-2.838 6.316l.159.168v.177l-4.517 4.516-.16.015-.195-.134a3.747 3.747 0 00-2.033-.602c-.952 0-1.847.353-2.537.977l-.169.161-.162.014-5.909-4.221-.04-.155.092-.198a3.7 3.7 0 00.323-1.495 3.795 3.795 0 10-6.624 2.528l.16.169.007.17-4.576 5.34-.164.022-.192-.127a3.749 3.749 0 00-1.991-.571 3.796 3.796 0 103.796 3.796c0-.743-.222-1.453-.629-2.069l-.142-.202.005-.156 4.706-5.49.149-.032.198.093c.484.213.987.325 1.501.325a3.77 3.77 0 002.536-.977l.168-.161.162-.015 5.91 4.222.041.155-.092.197a3.706 3.706 0 00-.323 1.495 3.796 3.796 0 107.592 0c0-.726-.21-1.42-.599-2.027l-.135-.199.012-.162 4.667-4.666.142-.025.199.094c.484.213.987.326 1.502.326a3.795 3.795 0 100-7.592zm-28.54 16.866a2.83 2.83 0 00-2.826-2.826 2.829 2.829 0 00-2.825 2.826 2.827 2.827 0 002.825 2.825 2.828 2.828 0 002.826-2.825zm-2.826-2.576a2.579 2.579 0 00-2.575 2.576 2.577 2.577 0 002.575 2.575 2.578 2.578 0 002.576-2.575 2.58 2.58 0 00-2.576-2.576zm24.608-.039a2.83 2.83 0 00-2.826-2.826 2.829 2.829 0 00-2.825 2.826 2.829 2.829 0 002.825 2.826 2.83 2.83 0 002.826-2.826zm-2.826-2.576a2.579 2.579 0 00-2.575 2.576 2.579 2.579 0 002.575 2.576 2.58 2.58 0 002.576-2.576 2.579 2.579 0 00-2.576-2.576zm-9.372-6.136a2.829 2.829 0 00-2.826-2.826 2.829 2.829 0 00-2.826 2.826 2.829 2.829 0 002.826 2.826 2.829 2.829 0 002.826-2.826zm-2.826-2.576a2.579 2.579 0 00-2.576 2.576 2.579 2.579 0 002.576 2.576 2.579 2.579 0 002.576-2.576 2.579 2.579 0 00-2.576-2.576zm24.607.834a2.829 2.829 0 00-2.825-2.826 2.83 2.83 0 00-2.826 2.826 2.828 2.828 0 002.826 2.824 2.827 2.827 0 002.825-2.824zm-2.825-2.576a2.58 2.58 0 00-2.576 2.576 2.578 2.578 0 002.576 2.574 2.577 2.577 0 002.575-2.574 2.579 2.579 0 00-2.575-2.576zM21.384 23.937h-.125a3.14 3.14 0 00-3.136 3.136v5.199-5.077l.005-.182a3.265 3.265 0 013.072-3.07l.184-.006zm49.663.25H21.384a3.015 3.015 0 00-2.991 2.662l-.015.175-.005.174v5.074h55.685v-5.105a3.016 3.016 0 00-2.834-2.975l-.177-.005zm-46.528 4.318a.996.996 0 00-1.06-.994.871.871 0 00-.93.93.996.996 0 101.99.065zm-.252-.06a.871.871 0 01-.804.804.747.747 0 00.804-.804zm3.613-.936a.996.996 0 11-.995.932.871.871 0 01.93-.93.986.986 0 01.065-.002zm.743.936a.872.872 0 01-.804.804.747.747 0 00.804-.804z" fill="#1B127D"/><path fill-rule="evenodd" clip-rule="evenodd" d="M60.863 40.142a3.921 3.921 0 00-2.768 6.697l-4.517 4.516a3.89 3.89 0 00-5.094.418l-5.91-4.221a3.887 3.887 0 00.428-1.746 3.92 3.92 0 10-6.677 2.785l-4.576 5.34a3.883 3.883 0 00-2.252-.72 3.92 3.92 0 103.92 3.922c0-.885-.302-1.691-.795-2.346l4.706-5.49c.53.266 1.12.43 1.753.43a3.9 3.9 0 002.794-1.176l5.91 4.221a3.893 3.893 0 00-.427 1.746 3.92 3.92 0 107.842 0c0-.863-.287-1.652-.758-2.3l4.667-4.666c.53.266 1.12.431 1.754.431a3.92 3.92 0 100-7.841zm-31.366 19.69c-1.49 0-2.7-1.21-2.7-2.7s1.21-2.7 2.7-2.7a2.704 2.704 0 012.7 2.7c0 1.49-1.212 2.7-2.7 2.7zm6.883-14.027c0 1.49 1.212 2.7 2.7 2.7 1.49 0 2.701-1.21 2.701-2.7 0-1.489-1.21-2.7-2.7-2.7a2.703 2.703 0 00-2.701 2.7zm14.899 11.413c-1.49 0-2.7-1.211-2.7-2.7a2.704 2.704 0 012.7-2.702 2.704 2.704 0 012.7 2.701 2.703 2.703 0 01-2.7 2.701zm6.883-13.155c0 1.488 1.212 2.7 2.701 2.7 1.49 0 2.7-1.211 2.7-2.7a2.704 2.704 0 00-2.7-2.701 2.704 2.704 0 00-2.7 2.7z" fill="#ED26B7"/></svg>