<svg width="80" height="80" fill="none" xmlns="http://www.w3.org/2000/svg"><path fill-rule="evenodd" clip-rule="evenodd" d="M67.934 15.727h-56.02C9.211 15.727 7 17.868 7 20.484v40.91c0 2.618 2.211 4.757 4.914 4.757h56.02c2.702 0 4.914-2.14 4.914-4.757v-40.91c0-2.616-2.212-4.757-4.914-4.757zm-56.02 1.333h56.02c1.95 0 3.537 1.538 3.537 3.425v5.677H8.377v-5.677c0-1.887 1.586-3.425 3.537-3.425zm0 47.76h56.02c1.951 0 3.537-1.538 3.538-3.426v-33.9H8.377v33.9c0 1.888 1.586 3.425 3.537 3.425z" fill="#1B127D"/><ellipse cx="14.326" cy="21.911" rx=".983" ry=".951" fill="#1B127D"/><ellipse cx="19.241" cy="21.911" rx=".983" ry=".951" fill="#1B127D"/><path d="M40.423 38.939c.195-.538.803-.82 1.358-.632.523.178.485.613.354 1.123l-.03.096-4.76 13.117c-.195.537-.476.917-1.03.728a1.026 1.026 0 01-.682-1.22l.03-.095 4.76-13.117z" fill="#1B127D"/><path d="M29.301 38.491c.416-.403.826-.403 1.242 0 .39.378.008.975-.333 1.38l-.073.079-6.084 5.888 6.084 5.889c.39.378.82.975.479 1.38l-.073.079c-.39.377-.743.401-1.161.07l-.081-.07-6.837-6.618a1.007 1.007 0 01-.073-1.38l.073-.079 6.837-6.618zm19.042 0a1.091 1.091 0 011.426-.07l.081.07 6.837 6.618c.39.378.414.975.073 1.38l-.073.079-6.837 6.618a1.09 1.09 0 01-1.507 0c-.39-.378.032-.975.374-1.38l.073-.079 6.083-5.889-6.083-5.888c-.39-.378-.861-.975-.52-1.38l.073-.079z" fill="#ED26B7"/></svg>