<svg width="787" height="553" fill="none" xmlns="http://www.w3.org/2000/svg"><path d="M757.572 363.466c0 3.441-2.26 6.774-6.78 9.355l-10.46 5.944-299.789 170.364c-9.147 5.161-23.998 5.161-33.145 0L6.78 322.091C2.26 319.511 0 316.07 0 312.737c0-3.441 2.26-6.774 6.78-9.355l310.249-176.309c9.147-5.161 23.998-5.161 33.145 0l400.618 227.039c4.52 2.473 6.78 5.913 6.78 9.354z" fill="#F2F4F6"/><path opacity=".423" d="M757.572 278.076c0 3.441-2.26 6.774-6.78 9.355l-10.46 5.944-299.789 170.364c-9.147 5.161-23.998 5.161-33.145 0L6.78 236.701C2.26 234.12 0 230.68 0 227.346c0-3.44 2.26-6.774 6.78-9.354L317.029 41.683c9.147-5.16 23.998-5.16 33.145 0l400.618 227.038c4.52 2.474 6.78 5.914 6.78 9.355z" fill="url(#a)"/><path d="M786.051 346.442c0 2.309-1.516 4.547-4.549 6.279l-4.629 2.707c-6.138 3.464-16.103 3.464-22.241 0l-411.17-235.711c-3.033-1.732-4.549-4.041-4.549-6.278 0-2.31 1.516-4.547 4.549-6.279l4.63-2.707c6.138-3.464 16.102-3.464 22.24 0l411.17 235.711c3.033 1.659 4.549 3.969 4.549 6.278z" fill="#F2F4F6"/><path d="M782.314 264.34c0 3.445-2.261 6.783-6.782 9.367L440.921 463.022c-9.15 5.168-24.006 5.168-33.156 0L7.021 235.688C2.5 233.104.239 229.659.239 226.321c0-3.445-1.5-17.228 3.02-19.812l338.373-191.83c9.15-5.168 24.005-5.168 33.155 0l404.492 229.837c4.521 2.477 3.035 16.379 3.035 19.824z" fill="#BFC9D1"/><path d="M782.184 251.072c0 3.441-2.26 6.774-6.78 9.354l-334.15 189.081c-9.148 5.161-23.998 5.161-33.145 0L7.491 222.469c-4.52-2.58-6.78-6.021-6.78-9.354 0-3.441 2.26-6.774 6.78-9.355L341.64 14.68c9.148-5.162 23.998-5.162 33.145 0l400.618 227.037c4.52 2.473 6.78 5.914 6.78 9.355z" fill="#fff" stroke="#1B127D" stroke-width=".991"/><path fill-rule="evenodd" clip-rule="evenodd" d="M781.779 250.442c0 2.297-1.509 4.522-4.528 6.244l-4.607 2.692c-6.109 3.445-16.026 3.445-22.134 0L341.304 24.977c-3.019-1.722-4.528-4.019-4.528-6.244 0-2.296 1.509-4.521 4.528-6.243l4.607-2.692c6.109-3.445 16.026-3.445 22.134 0l409.206 234.401c3.019 1.65 4.528 3.947 4.528 6.243z" fill="#fff" stroke="#1B127D" stroke-width=".991"/><path fill-rule="evenodd" clip-rule="evenodd" d="M781.779 244.038c0 2.297-1.509 4.521-4.528 6.244l-4.607 2.692c-6.109 3.444-16.026 3.444-22.134 0L341.304 18.573c-3.019-1.723-4.528-4.02-4.528-6.244 0-2.297 1.509-4.521 4.528-6.244l4.607-2.692c6.109-3.444 16.026-3.444 22.134 0l409.206 234.401c3.019 1.651 4.528 3.948 4.528 6.244z" fill="#fff" stroke="#1B127D" stroke-width=".991"/><path d="M165.01 312.063l341.643-194.115c10.073-5.683-346.621 196.957-341.643 194.115zm-86.225-47.818L420.428 70.129c10.073-5.682-346.62 196.957-341.643 194.116zm171.45 96.135l341.643-194.116c10.073-5.682-346.62 196.957-341.643 194.116zm85.227 48.317l341.643-194.116c10.073-5.683-346.62 196.957-341.643 194.116z" stroke="#BFC9D1" stroke-width=".991" stroke-dasharray="2.15 4.3"/><path d="M509.289 412.674L75.512 166.296c-12.79-7.212 440.096 249.984 433.777 246.378zm86.721-49.811L162.232 116.485c-12.789-7.212 440.097 249.984 433.778 246.378zm83.732-48.317L245.965 68.168c-12.789-7.212 440.096 249.984 433.777 246.378z" stroke="#BFC9D1" stroke-width=".991" stroke-dasharray="2.15 4.84"/><path fill-rule="evenodd" clip-rule="evenodd" d="M342.232 112.458l3.42 1.971-6.955 4.067 6.955 3.932-2.95 1.934-7.576-3.868-6.961 3.855-3.343-1.921 6.733-3.931-5.981-3.346 3.147-1.738 6.405 3.086 7.106-4.041zm-81.309 50.288l-3.42-1.972-7.106 4.041-6.405-3.085-3.147 1.738 5.981 3.345-6.733 3.931 3.343 1.922 6.961-3.855 7.576 3.867 2.95-1.934-6.954-3.931 6.954-4.067zm-86.654 49.294l-3.42-1.972-7.106 4.041-6.404-3.086-3.148 1.739 5.981 3.345-6.733 3.931 3.343 1.922 6.961-3.855 7.576 3.867 2.95-1.934-6.954-3.931 6.954-4.067zm257.106-49.294l-3.42-1.972-7.106 4.041-6.404-3.086-3.148 1.739 5.981 3.345-6.732 3.931 3.342 1.922 6.961-3.855 7.576 3.867 2.95-1.934-6.954-3.931 6.954-4.067zm-88.149 46.345l3.42 1.972-6.954 4.067 6.954 3.931-2.95 1.934-7.576-3.867-6.961 3.855-3.343-1.922 6.733-3.931-5.981-3.345 3.148-1.739 6.404 3.086 7.106-4.041zm-86.654 49.294l3.42 1.971-6.954 4.067 6.954 3.932-2.949 1.933-7.577-3.867-6.961 3.855-3.342-1.921 6.732-3.932-5.98-3.345 3.147-1.738 6.404 3.086 7.106-4.041zm256.18-49.294l3.42 1.972-6.954 4.066 6.954 3.932-2.95 1.934-7.576-3.868-6.961 3.856-3.342-1.922 6.732-3.931-5.981-3.346 3.148-1.738 6.404 3.086 7.106-4.041zm-81.309 50.288l-3.42-1.971-7.106 4.041-6.404-3.086-3.148 1.738 5.981 3.346-6.732 3.931 3.342 1.921 6.961-3.855 7.576 3.868 2.95-1.934-6.954-3.932 6.954-4.067zm-86.654 49.294l-3.42-1.972-7.105 4.041-6.405-3.086-3.147 1.739 5.98 3.345-6.732 3.931 3.342 1.922 6.962-3.855 7.576 3.867 2.949-1.934-6.954-3.931 6.954-4.067zm253.62-51.265l3.42 1.971-6.955 4.067 6.955 3.932-2.95 1.933-7.576-3.867-6.961 3.855-3.343-1.921 6.733-3.932-5.981-3.345 3.147-1.738 6.405 3.086 7.106-4.041zM517.1 307.696l-3.42-1.972-7.106 4.041-6.405-3.086-3.147 1.739 5.981 3.345-6.733 3.931 3.343 1.922 6.961-3.856 7.576 3.868 2.95-1.934-6.955-3.931 6.955-4.067zm-86.654 49.293l-3.42-1.971-7.106 4.041-6.404-3.086-3.148 1.738 5.981 3.346-6.733 3.931 3.343 1.921 6.961-3.855 7.576 3.868 2.95-1.934-6.954-3.932 6.954-4.067z" fill="#DFE4E8"/><g fill="#DFE4E8"><ellipse cx="141.226" cy="215.068" rx="5.233" ry="3.487"/><ellipse cx="227.45" cy="167.25" rx="5.233" ry="3.487"/><ellipse cx="314.671" cy="117.937" rx="5.233" ry="3.487"/><ellipse cx="400.395" cy="69.62" rx="5.233" ry="3.487"/><ellipse cx="11.641" cy="215.068" rx="5.233" ry="3.487"/><ellipse cx="97.866" cy="167.25" rx="5.233" ry="3.487"/><ellipse cx="185.086" cy="117.937" rx="5.233" ry="3.487"/><ellipse cx="270.811" cy="69.62" rx="5.233" ry="3.487"/><ellipse cx="75.438" cy="178.208" rx="5.233" ry="3.487"/><ellipse cx="161.661" cy="130.389" rx="5.233" ry="3.487"/><ellipse cx="248.881" cy="81.077" rx="5.233" ry="3.487"/><ellipse cx="334.606" cy="32.76" rx="5.233" ry="3.487"/><ellipse cx="75.438" cy="250.434" rx="5.233" ry="3.487"/><ellipse cx="161.661" cy="202.615" rx="5.233" ry="3.487"/><ellipse cx="248.881" cy="153.303" rx="5.233" ry="3.487"/><ellipse cx="334.606" cy="104.986" rx="5.233" ry="3.487"/><ellipse cx="226.453" cy="263.385" rx="5.233" ry="3.487"/><ellipse cx="312.676" cy="215.567" rx="5.233" ry="3.487"/><ellipse cx="399.897" cy="166.254" rx="5.233" ry="3.487"/><ellipse cx="485.622" cy="117.937" rx="5.233" ry="3.487"/><ellipse cx="96.868" cy="263.385" rx="5.233" ry="3.487"/><ellipse cx="183.092" cy="215.567" rx="5.233" ry="3.487"/><ellipse cx="270.312" cy="166.254" rx="5.233" ry="3.487"/><ellipse cx="356.038" cy="117.937" rx="5.233" ry="3.487"/><ellipse cx="160.664" cy="226.525" rx="5.233" ry="3.487"/><ellipse cx="246.888" cy="178.706" rx="5.233" ry="3.487"/><ellipse cx="334.107" cy="129.394" rx="5.233" ry="3.487"/><ellipse cx="419.833" cy="81.077" rx="5.233" ry="3.487"/><ellipse cx="160.664" cy="298.751" rx="5.233" ry="3.487"/><ellipse cx="246.888" cy="250.933" rx="5.233" ry="3.487"/><ellipse cx="334.107" cy="201.62" rx="5.233" ry="3.487"/><ellipse cx="419.833" cy="153.303" rx="5.233" ry="3.487"/><ellipse cx="314.172" cy="311.204" rx="5.233" ry="3.487"/><ellipse cx="400.395" cy="263.385" rx="5.233" ry="3.487"/><ellipse cx="487.616" cy="214.072" rx="5.233" ry="3.487"/><ellipse cx="573.341" cy="165.756" rx="5.233" ry="3.487"/><ellipse cx="184.587" cy="311.204" rx="5.233" ry="3.487"/><ellipse cx="270.81" cy="263.385" rx="5.233" ry="3.487"/><ellipse cx="358.031" cy="214.072" rx="5.233" ry="3.487"/><ellipse cx="443.757" cy="165.756" rx="5.233" ry="3.487"/><ellipse cx="248.383" cy="274.344" rx="5.233" ry="3.487"/><ellipse cx="334.606" cy="226.525" rx="5.233" ry="3.487"/><ellipse cx="421.826" cy="177.213" rx="5.233" ry="3.487"/><ellipse cx="507.552" cy="128.896" rx="5.233" ry="3.487"/><ellipse cx="248.383" cy="346.57" rx="5.233" ry="3.487"/><ellipse cx="334.606" cy="298.751" rx="5.233" ry="3.487"/><ellipse cx="421.826" cy="249.438" rx="5.233" ry="3.487"/><ellipse cx="507.552" cy="201.122" rx="5.233" ry="3.487"/><ellipse cx="400.394" cy="360.018" rx="5.233" ry="3.487"/><ellipse cx="486.618" cy="312.2" rx="5.233" ry="3.487"/><ellipse cx="573.84" cy="262.887" rx="5.233" ry="3.487"/><ellipse cx="659.564" cy="214.57" rx="5.233" ry="3.487"/><ellipse cx="270.81" cy="360.018" rx="5.233" ry="3.487"/><ellipse cx="357.034" cy="312.199" rx="5.233" ry="3.487"/><ellipse cx="444.255" cy="262.887" rx="5.233" ry="3.487"/><ellipse cx="529.979" cy="214.57" rx="5.233" ry="3.487"/><ellipse cx="334.606" cy="323.158" rx="5.233" ry="3.487"/><ellipse cx="420.83" cy="275.339" rx="5.233" ry="3.487"/><ellipse cx="508.05" cy="226.027" rx="5.233" ry="3.487"/><ellipse cx="593.775" cy="177.71" rx="5.233" ry="3.487"/><ellipse cx="334.606" cy="395.384" rx="5.233" ry="3.487"/><ellipse cx="420.83" cy="347.565" rx="5.233" ry="3.487"/><ellipse cx="508.05" cy="298.252" rx="5.233" ry="3.487"/><ellipse cx="593.775" cy="249.936" rx="5.233" ry="3.487"/><ellipse cx="486.618" cy="408.335" rx="5.233" ry="3.487"/><ellipse cx="572.841" cy="360.516" rx="5.233" ry="3.487"/><ellipse cx="660.062" cy="311.203" rx="5.233" ry="3.487"/><ellipse cx="745.787" cy="262.887" rx="5.233" ry="3.487"/><ellipse cx="357.033" cy="408.335" rx="5.233" ry="3.487"/><ellipse cx="443.258" cy="360.516" rx="5.233" ry="3.487"/><ellipse cx="530.477" cy="311.203" rx="5.233" ry="3.487"/><ellipse cx="616.203" cy="262.887" rx="5.233" ry="3.487"/><ellipse cx="420.829" cy="371.475" rx="5.233" ry="3.487"/><ellipse cx="507.053" cy="323.656" rx="5.233" ry="3.487"/><ellipse cx="594.272" cy="274.343" rx="5.233" ry="3.487"/><ellipse cx="679.999" cy="226.027" rx="5.233" ry="3.487"/><ellipse cx="420.829" cy="443.701" rx="5.233" ry="3.487"/><ellipse cx="507.053" cy="395.882" rx="5.233" ry="3.487"/><ellipse cx="594.272" cy="346.569" rx="5.233" ry="3.487"/><ellipse cx="679.999" cy="298.253" rx="5.233" ry="3.487"/></g><g fill="#fff" stroke="#1B127D" stroke-width=".991"><path d="M494.8 116.635c0 3.461-2.255 6.814-6.765 9.41l-49.896 29.8c-9.128 5.192-23.946 5.192-33.074 0l-53.183-30.979c-4.51-2.596-6.765-6.057-6.765-9.41 0-3.461 2.255-6.814 6.765-9.41l49.896-29.8c9.127-5.192 23.946-5.192 33.074 0l53.183 30.979c4.51 2.488 6.765 5.949 6.765 9.41z"/><path d="M494.8 112.337c0 3.461-2.255 6.814-6.765 9.41l-49.896 29.8c-9.128 5.192-23.946 5.192-33.074 0l-53.183-30.978c-4.51-2.596-6.765-6.057-6.765-9.41 0-3.462 2.255-6.815 6.765-9.41l49.896-29.8c9.127-5.192 23.946-5.192 33.074 0l53.183 30.978c4.51 2.488 6.765 5.949 6.765 9.41z"/></g><path fill-rule="evenodd" clip-rule="evenodd" d="M388.762 113.897l34.39-17.543-3.119-1.797-14.618 1.867-2.867 3.519 9.235-1.274-26.229 13.379 3.208 1.849zm15.692 9.312l6.471-3.323-7.054-4.08 13.899-1.862a55.274 55.274 0 002.645-.45 30.706 30.706 0 002.697-.662 31.796 31.796 0 002.889-1.005c1.004-.4 2.061-.886 3.172-1.456 1.732-.89 3.121-1.746 4.166-2.568 1.045-.823 1.769-1.591 2.171-2.304.402-.713.509-1.365.321-1.956-.188-.59-.641-1.093-1.36-1.509-.779-.45-1.722-.755-2.83-.914-1.107-.159-2.349-.155-3.726.012-1.376.167-2.876.504-4.499 1.01-1.624.507-3.356 1.208-5.199 2.105l2.83 2.226c1.287-.612 2.532-1.034 3.733-1.266 1.202-.233 2.117-.167 2.746.196.524.304.646.74.365 1.309-.28.569-1.009 1.156-2.185 1.76a12.314 12.314 0 01-3.217 1.136c-1.099.221-2.116.4-3.052.537l-18.286 2.643-7.794 4.002 11.097 6.419zm9.774 5.581c-1.134-.179-2.094-.487-2.881-.925-1.439-.799-1.949-1.847-1.532-3.144.416-1.297 2.028-2.815 4.834-4.554l5.421 1.086c-1.134.69-1.879 1.317-2.235 1.883-.356.567-.171 1.052.556 1.456.741.412 1.712.509 2.91.289 1.198-.219 2.458-.656 3.78-1.311.991-.491 1.665-.924 2.021-1.299.356-.375.514-.712.476-1.012-.038-.299-.222-.566-.551-.801a11.092 11.092 0 00-1.061-.668l-.795-.442 6.443-3.191 1.113.619c.318.177.678.325 1.08.444s.868.179 1.398.178c.531 0 1.128-.085 1.792-.254.663-.169 1.408-.459 2.234-.868 1.057-.523 1.74-1.064 2.048-1.623.308-.558.182-.993-.379-1.304-.529-.295-1.282-.384-2.258-.266-.976.117-1.98.375-3.011.775l-2.062-2.918c1.702-.652 3.271-1.143 4.708-1.473 1.438-.329 2.736-.519 3.897-.568 1.16-.05 2.204.018 3.131.203.927.186 1.731.468 2.412.847.712.395 1.207.87 1.486 1.425.278.554.262 1.171-.048 1.849-.31.679-.928 1.403-1.856 2.173-.927.769-2.233 1.571-3.918 2.406-1.95.965-3.853 1.661-5.71 2.088-1.857.426-3.43.489-4.72.189l-.149.073c.352.335.466.728.341 1.18-.124.452-.421.929-.891 1.432-.47.503-1.099 1.022-1.888 1.556a23.39 23.39 0 01-2.72 1.562c-1.751.867-3.442 1.541-5.074 2.023-1.632.482-3.147.795-4.545.938-1.398.143-2.664.126-3.797-.053z" fill="#1B127D"/><path fill-rule="evenodd" clip-rule="evenodd" d="M433.974 83.003l30.49 17.843c2.904 1.686 3.407 4.311 1.125 5.864-2.283 1.552-6.488 1.444-9.392-.242l-30.489-17.843c-2.904-1.686-3.408-4.311-1.125-5.864 2.282-1.552 6.487-1.444 9.391.242z" fill="#fff" style="mix-blend-mode:overlay" opacity=".591"/><path opacity=".493" fill-rule="evenodd" clip-rule="evenodd" d="M395.434 125.03l-1.368 1.31 1.676 1.287-17.796-2.27-.195 1.609 18.644 2.378-2.329 1.858.91 1.318 3.634-2.894.228.029.028-.233.876-.697-.717-.615.008-.063-.096-.012-3.503-3.005z" fill="#fff"/><path d="M154.735 211.858c0 3.438-2.255 6.768-6.765 9.346l-49.895 29.597c-9.128 5.156-23.947 5.156-33.074 0l-53.183-30.768c-4.51-2.578-6.765-6.015-6.765-9.345 0-3.438 2.255-6.768 6.765-9.346l49.895-29.597c9.128-5.156 23.947-5.156 33.075 0l53.182 30.768c4.51 2.47 6.765 5.908 6.765 9.345z" fill="#fff" stroke="#1B127D" stroke-width=".991"/><path d="M154.735 207.59c0 3.438-2.255 6.768-6.765 9.346l-49.895 29.597c-9.128 5.156-23.947 5.156-33.074 0l-53.183-30.768c-4.51-2.578-6.765-6.015-6.765-9.346 0-3.437 2.255-6.767 6.765-9.345l49.895-29.597c9.128-5.156 23.947-5.156 33.075 0l53.182 30.767c4.51 2.471 6.765 5.909 6.765 9.346z" fill="#fff" stroke="#1B127D" stroke-width=".991"/><path fill-rule="evenodd" clip-rule="evenodd" d="M105.092 195.43c4.863 3.165 7.498 7.02 7.975 10.965l-.027 2.454c.003.058.003.115 0 .173-.395 3.274-2.255 6.493-5.534 9.322a28.75 28.75 0 01-5.768 3.797c-13.771 7.002-34.604 6.432-46.528-1.342A24.597 24.597 0 0152.803 219c-3.59-2.999-5.444-6.466-5.617-9.946v-1.082c.27-5.107 4.116-10.177 11.378-13.877 13.771-7.008 34.604-6.439 46.528 1.335zm-15.541 18.849a11.026 11.026 0 003.458-2.607l-.028-.002c2.456-2.893 1.854-6.431-2.026-8.938-5.16-3.352-14.166-3.631-20.12-.581-4.995 2.548-6.226 6.609-3.46 9.821a9.641 9.641 0 002.027 1.731c5.174 3.346 14.166 3.603 20.148.576z" fill="#BFC9D1"/><g fill-rule="evenodd" clip-rule="evenodd" fill="#fff" stroke="#1B127D" stroke-width=".991"><path d="M756.52 264.028c0 3.444-2.262 6.78-6.788 9.363l-139.155 79.586c-9.158 5.166-24.027 5.166-33.185 0L350.945 223.503c-4.525-2.583-6.788-6.027-6.788-9.363 0-3.444 2.263-6.78 6.788-9.363l139.156-79.586c9.158-5.166 24.026-5.166 33.184 0l226.447 129.475c4.526 2.475 6.788 5.919 6.788 9.362z"/><path d="M756.52 259.759c0 3.444-2.262 6.78-6.788 9.363l-139.155 79.586c-9.158 5.166-24.027 5.166-33.185 0L350.945 219.233c-4.525-2.582-6.788-6.026-6.788-9.362 0-3.444 2.263-6.78 6.788-9.363l139.156-79.586c9.158-5.166 24.026-5.166 33.184 0l226.447 129.474c4.526 2.475 6.788 5.919 6.788 9.363z"/></g><g fill-rule="evenodd" clip-rule="evenodd" fill="#fff" stroke="#1B127D" stroke-width=".991"><path d="M500.208 410.601c0 3.434-2.259 6.761-6.775 9.337l-53.408 28.51c-9.14 5.151-23.98 5.151-33.12 0L180.899 319.336c-4.517-2.576-6.775-6.01-6.775-9.337 0-3.434 2.258-6.761 6.775-9.336l53.408-28.511c9.14-5.151 23.979-5.151 33.12 0l226.006 129.112c4.516 2.469 6.775 5.903 6.775 9.337z"/><path d="M500.208 406.338c0 3.434-2.259 6.761-6.775 9.337l-53.408 28.51c-9.14 5.151-23.98 5.151-33.12 0L180.899 315.073c-4.517-2.576-6.775-6.01-6.775-9.337 0-3.434 2.258-6.761 6.775-9.336l53.408-28.511c9.14-5.151 23.979-5.151 33.12 0l226.006 129.112c4.516 2.469 6.775 5.903 6.775 9.337z"/></g><path d="M93.785 86.852v73.4m154.002 12.827v73.4m71.301-109.743v73.399M159.374 42.67v73.4m19.965-86.94v73.4m153.296 27.792v73.4M400.37 88.99v73.4M247.787 5.613v73.4m23.173 142.168l-.356 42.401m62.209-81.061l-.357 42.401m241.355 93.71l-.357 42.401m-65.241-6.058l-.356 42.401" stroke="#ED26B7" stroke-width=".991" stroke-dasharray="3.84"/><ellipse cx="357.764" cy="14.083" rx="7.843" ry="4.627" fill="#ED26B7"/><ellipse cx="374.878" cy="24.048" rx="7.843" ry="4.627" fill="#BFC9D1"/><ellipse cx="393.416" cy="34.013" rx="7.843" ry="4.627" fill="#20CA8B"/><path d="M760.237 240.199c6.262 3.496 7.703 6.54 4.322 9.132l-18.187-10.356c2.982-2.68 7.603-2.272 13.865 1.224zm6.038-5.359c2.86 1.541 3.77 4.02 2.032 5.537-1.737 1.516-5.465 1.497-8.325-.044-2.86-1.541-3.77-4.02-2.032-5.537 1.737-1.516 5.465-1.497 8.325.044zm-38.469-16.383l18.337 10.687c1.747 1.01 2.05 2.583.677 3.513-1.373.93-3.902.865-5.648-.145l-18.337-10.688c-1.747-1.01-2.05-2.582-.677-3.512 1.373-.93 3.902-.865 5.648.145zm-13.8-7.839l5.816 3.622c1.678 1 1.969 2.556.65 3.476-1.319.92-3.75.856-5.428-.143l-5.816-3.622c-1.679-1-1.97-2.556-.65-3.476 1.319-.92 3.749-.856 5.428.143zm-502.848 86.065l74.132 42.937c2.463 1.421 2.89 3.634.954 4.942-1.935 1.308-5.5 1.217-7.962-.204l-74.132-42.937c-2.462-1.421-2.889-3.634-.954-4.942 1.935-1.308 5.5-1.217 7.962.204zm162.524 79.084c2.052-1.175 2.617-2.762 1.26-3.545l-58.118-33.554c-1.356-.783-4.119-.466-6.172.709l-16.928 9.687c-2.052 1.174-2.616 2.761-1.26 3.544l58.118 33.555c1.357.783 4.12.466 6.172-.709l16.928-9.687zm-61.844-35.434c.682-.385 1.603-.485 2.057-.223l58.332 33.678c.454.262.269.786-.414 1.172l-16.883 9.538c-.683.386-1.604.486-2.057.224l-58.333-33.678c-.453-.262-.268-.787.414-1.172l16.884-9.539zm141.622 80.372c2.053-1.174 2.617-2.761 1.261-3.544l-58.119-33.555c-1.356-.783-4.119-.465-6.171.709l-16.928 9.687c-2.053 1.175-2.617 2.762-1.261 3.545l58.119 33.554c1.356.783 4.119.466 6.171-.708l16.928-9.688zm-61.843-35.433c.682-.386 1.603-.486 2.056-.224l58.333 33.678c.453.262.268.787-.414 1.172l-16.884 9.539c-.682.385-1.603.485-2.057.224l-58.332-33.679c-.454-.262-.269-.786.414-1.172l16.884-9.538zm-169.772-94.283l41.363 24.312c2.463 1.437 2.891 3.675.955 4.998-1.936 1.323-5.503 1.23-7.966-.207l-41.363-24.312c-2.463-1.437-2.89-3.675-.954-4.998 1.936-1.322 5.502-1.23 7.965.207zm20.716-11.422l48.412 28.65c2.479 1.425 2.909 3.644.961 4.956-1.949 1.313-5.538 1.221-8.017-.204l-48.412-28.651c-2.479-1.425-2.909-3.644-.961-4.956 1.949-1.312 5.538-1.221 8.017.205zm-10.098 5.698l21.504 13.008c2.445 1.415 2.869 3.618.947 4.92-1.921 1.303-5.461 1.212-7.905-.203l-21.504-13.008c-2.445-1.415-2.869-3.618-.948-4.92 1.922-1.303 5.462-1.212 7.906.203zm32.763 19.26l21.504 13.008c2.445 1.415 2.869 3.618.947 4.92-1.921 1.303-5.461 1.212-7.906-.203l-21.504-13.008c-2.444-1.415-2.868-3.618-.947-4.921 1.922-1.302 5.461-1.211 7.906.204zm243.879-59.795l95.148 55.071c3.16 1.823 3.708 4.661 1.224 6.339-2.484 1.678-7.059 1.561-10.219-.262l-95.147-55.071c-3.16-1.823-3.708-4.661-1.225-6.339 2.484-1.678 7.059-1.56 10.219.262zm13.544-7.114l53.107 30.868c3.162 1.824 3.711 4.665 1.225 6.345-2.486 1.679-7.065 1.562-10.227-.262l-53.107-30.869c-3.162-1.824-3.711-4.665-1.225-6.344 2.485-1.68 7.064-1.563 10.227.262zm26.451-14.947l62.251 36.583c3.188 1.82 3.741 4.654 1.235 6.329-2.505 1.676-7.12 1.559-10.308-.261l-62.251-36.584c-3.188-1.819-3.741-4.653-1.235-6.328 2.505-1.676 7.12-1.559 10.308.261zm13.536-7.828l41.967 24.243c3.188 1.82 3.741 4.654 1.235 6.329-2.505 1.676-7.12 1.559-10.308-.261l-41.967-24.243c-3.188-1.82-3.741-4.653-1.235-6.329 2.505-1.675 7.121-1.558 10.308.261zm54.851 32.022l28.361 16.344c3.188 1.82 3.741 4.653 1.235 6.329-2.505 1.675-7.121 1.558-10.308-.261l-28.362-16.345c-3.187-1.82-3.74-4.653-1.235-6.329 2.506-1.675 7.121-1.558 10.309.262zm-80.69-16.371l27.584 16.684c3.136 1.815 3.68 4.64 1.215 6.311-2.465 1.671-7.005 1.554-10.141-.26l-27.584-16.685c-3.136-1.814-3.68-4.64-1.215-6.311 2.465-1.67 7.005-1.554 10.141.261zm42.03 24.194l27.584 16.684c3.136 1.815 3.68 4.641 1.215 6.311-2.465 1.671-7.005 1.554-10.141-.26l-27.584-16.685c-3.136-1.814-3.68-4.64-1.215-6.311 2.465-1.67 7.005-1.554 10.141.261zm14.106-54.927l75.567 42.995c4.627 2.541 5.429 6.498 1.792 8.838-3.637 2.339-10.336 2.176-14.963-.365l-75.567-42.995c-4.627-2.541-5.43-6.498-1.793-8.838 3.637-2.339 10.337-2.176 14.964.365zm-41.53-23.233c4.081-2.319 4.498-5.818.929-7.799l-49.19-27.301c-3.569-1.981-9.793-1.705-13.874.615l-56.256 31.971c-4.081 2.32-4.498 5.819-.929 7.799l49.19 27.301c3.569 1.981 9.793 1.705 13.874-.614l56.256-31.972zm-66.651 5.037l29.921-1.325-1.823 15.29-20.292 11.533c-2.449 1.392-6.183 1.557-8.324.369l-49.191-27.301c-1.529-.849-1.839-2.162-.999-3.35l47.626-2.109-1.488 12.486 3.923-.173.647-5.42zm64.619-11.153l-49.19-27.301c-2.142-1.189-5.876-1.023-8.325.369l-54.474 30.959 48.475-2.147-.843 7.067 33.846-1.499-1.824 15.291 31.777-18.06c2.45-1.392 2.7-3.49.558-4.679zm-66.045 23.094l.51-4.28-3.924.174-.51 4.28 3.924-.174zm19.528-39.488c4.196 2.329 3.706 6.443-1.093 9.17-4.798 2.727-12.117 3.051-16.313.722-4.196-2.328-3.707-6.442 1.093-9.17 4.799-2.727 12.116-3.051 16.313-.722zm-13.723 2.159c3.165-1.799 7.994-2.013 10.763-.477 2.768 1.537 2.445 4.251-.721 6.051-3.166 1.799-7.995 2.013-10.764.476-2.768-1.536-2.445-4.25.722-6.05z" fill-rule="evenodd" clip-rule="evenodd" fill="#1B127D"/><defs><linearGradient id="a" x1="23.088" y1="389.47" x2="604.635" y2="515.075" gradientUnits="userSpaceOnUse"><stop stop-color="#7FC1D5"/><stop offset="1" stop-color="#B0BECA"/></linearGradient></defs></svg>