<svg width="68" height="61" viewBox="0 0 68 61" fill="none" xmlns="http://www.w3.org/2000/svg"><path d="M24.848 35.689c5.955-3.05 14.96-2.77 20.12.575a10.48 10.48 0 011.522 1.203c.173-.175.339-14.216.491-14.393 2.456-2.893 1.854-6.431-2.013-8.936-5.16-3.352-14.165-3.61-20.12-.582-5.008 2.547-6.225 6.61-3.458 9.821.157.184.323 14.232.498 14.4a11.596 11.596 0 012.96-2.088z" fill="#1B127D"/><path fill-rule="evenodd" clip-rule="evenodd" d="M59.092 6.835C63.955 10 66.59 13.855 67.067 17.8l-.027 2.453c.003.058.003.116 0 .174-.395 3.273-2.255 6.493-5.534 9.321a28.705 28.705 0 01-5.768 3.798c-13.771 7.002-34.604 6.432-46.528-1.342a24.587 24.587 0 01-2.407-1.8c-3.59-2.998-5.444-6.465-5.616-9.945v-1.082C1.457 14.27 5.302 9.199 12.564 5.5 26.335-1.51 47.168-.94 59.092 6.835zM43.551 25.684a11.045 11.045 0 003.458-2.608l-.028-.002c2.456-2.893 1.854-6.43-2.026-8.937-5.16-3.352-14.166-3.631-20.12-.582-4.995 2.548-6.226 6.61-3.46 9.821a9.61 9.61 0 002.027 1.731c5.174 3.346 14.166 3.604 20.148.577z" fill="#fff"/><path d="M67.067 17.8l.496.005v-.032l-.004-.033-.492.06zM59.092 6.835l-.27.415.27-.415zm7.948 13.418l-.496-.005v.033l.496-.028zm0 .174l.492.059.002-.015v-.016l-.495-.028zm-5.534 9.321l.32.378.004-.003-.324-.375zm-5.768 3.798l-.221-.444-.004.002.225.442zM9.21 32.204l-.272.414h.001l.27-.414zm-2.407-1.8l.32-.378-.002-.002-.318.38zM1.187 20.46H.69v.024l.496-.024zm0-1.082L.69 19.35v.026h.496zM12.564 5.5l-.225-.442.225.442zM47.01 23.076l.37.33.67-.753-1.005-.071-.035.494zm-3.459 2.608l-.215-.447-.008.005.224.442zm3.431-2.61l-.378-.32-.633.746.976.069.035-.495zm-2.026-8.937l-.27.416.27-.416zm-20.12-.582l.224.442h.001l-.226-.442zm-3.46 9.821L21 23.7l.005.005.37-.329zm2.027 1.731l.27-.416-.003-.002-.267.418zM67.56 17.74c-.5-4.134-3.253-8.103-8.196-11.32l-.541.83c4.781 3.113 7.299 6.853 7.753 10.61l.984-.12zm-.024 2.519l.028-2.454-.992-.01-.027 2.453.991.01zm0 .196a2.007 2.007 0 000-.23l-.99.056a.988.988 0 010 .117l.99.057zm-5.705 9.669c3.348-2.888 5.29-6.213 5.702-9.638l-.985-.119c-.376 3.123-2.155 6.237-5.365 9.006l.648.75zM55.96 33.99a29.203 29.203 0 005.868-3.864l-.641-.756a28.212 28.212 0 01-5.67 3.732l.443.888zM8.94 32.619c6.06 3.95 14.346 6.051 22.828 6.292 8.485.241 17.222-1.378 24.195-4.923l-.449-.884c-6.797 3.456-15.363 5.053-23.718 4.816-8.358-.237-16.45-2.308-22.314-6.132l-.542.83zm-2.457-1.836a25.084 25.084 0 002.456 1.835l.544-.829a24.094 24.094 0 01-2.359-1.763l-.64.757zm-5.79-10.3c.18 3.65 2.124 7.237 5.793 10.302l.636-.761c-3.51-2.933-5.275-6.28-5.44-9.59l-.99.05zM.69 19.377v1.082h.991v-1.082h-.99zM12.339 5.058C4.993 8.8.974 13.998.691 19.351l.99.052c.257-4.86 3.93-9.804 11.108-13.462l-.45-.883zM59.363 6.42C53.303 2.469 45.017.368 36.535.128c-8.485-.24-17.222 1.38-24.195 4.93l.45.883C19.585 2.482 28.151.883 36.506 1.12c8.358.237 16.45 2.308 22.315 6.131l.541-.83zM46.64 22.747a10.55 10.55 0 01-3.304 2.49l.43.894a11.542 11.542 0 003.614-2.725l-.74-.66zm.307.822l.028.002.07-.99-.028-.001-.07.989zm-2.26-9.015c1.864 1.204 2.879 2.615 3.173 4.009.291 1.383-.109 2.84-1.256 4.19l.756.642c1.308-1.541 1.835-3.301 1.47-5.037-.364-1.725-1.59-3.336-3.605-4.637l-.538.832zm-19.626-.558c2.889-1.479 6.542-2.16 10.118-2.055 3.578.106 7.024.999 9.507 2.612l.54-.832c-2.677-1.739-6.314-2.662-10.018-2.771-3.706-.11-7.532.594-10.599 2.164l.452.882zm-3.308 9.057c-1.284-1.49-1.61-3.128-1.087-4.678.53-1.573 1.97-3.14 4.395-4.378l-.451-.883c-2.569 1.31-4.243 3.047-4.884 4.944-.649 1.921-.208 3.92 1.275 5.642l.752-.647zm1.917 1.636a9.113 9.113 0 01-1.922-1.642l-.742.658a10.101 10.101 0 002.131 1.82l.533-.836zm19.658.553c-2.904 1.469-6.562 2.15-10.14 2.048-3.58-.103-7.025-.989-9.515-2.6l-.539.833c2.684 1.736 6.321 2.652 10.026 2.758 3.707.106 7.536-.597 10.615-2.155l-.447-.884z" fill="#1B127D"/><path d="M55.752 54.667C41.98 61.676 21.169 61.08 9.224 53.332c-5.167-3.36-7.816-7.506-8.037-11.704v-21.17c.172 3.48 2.026 6.948 5.616 9.947.766.649 1.57 1.25 2.407 1.799 11.924 7.774 32.757 8.343 46.528 1.342a28.705 28.705 0 005.768-3.798c3.306-2.847 5.174-6.1 5.534-9.39l.055 19.23c.353 5.504-3.507 11.094-11.343 15.08z" fill="#fff" stroke="#1B127D" stroke-width=".991"/><path d="M46.262 23.814l15.016 6.605v20.808s-8.653 8.346-26.09 8.335c-.276-5.465-.844-20.792-.844-20.792l-3.831-11.207s9.24 1.641 15.749-3.748z" fill="#ED26B7"/><path d="M34.251 38.44s17.126-.394 27.027-8.373V51.27s-10.45 9.004-27.027 8.288V38.44z" fill="#ED26B7"/><path d="M67.067 17.8l.496.005v-.032l-.004-.033-.492.06zM59.092 6.835l-.27.415.27-.415zm7.948 13.418l-.496-.005v.033l.496-.028zm0 .174l.492.059.002-.016v-.015l-.495-.028zm-5.534 9.321l.32.378.004-.003-.324-.375zm-5.768 3.798l-.221-.444-.004.002.225.442zM9.21 32.204l-.272.414h.001l.27-.414zm-2.407-1.8l.32-.378-.002-.002-.318.38zM1.187 20.46H.69v.024l.496-.024zm0-1.082L.69 19.35v.026h.496zM12.564 5.5l-.225-.442.225.442zM47.01 23.076l.37.33.67-.753-1.005-.071-.035.494zm-3.459 2.608l-.215-.447-.008.005.224.442zm3.431-2.61l-.378-.32-.633.746.976.069.035-.495zm-2.026-8.937l-.27.416.27-.416zm-20.12-.582l.224.442h.001l-.226-.442zm-3.46 9.821L21 23.7l.005.005.37-.329zm2.027 1.731l.27-.416-.003-.002-.267.418zM67.56 17.74c-.5-4.134-3.253-8.103-8.196-11.32l-.541.83c4.781 3.113 7.299 6.853 7.753 10.61l.984-.12zm-.024 2.519l.028-2.454-.992-.01-.027 2.453.991.01zm0 .196a2.054 2.054 0 000-.23l-.99.056a.99.99 0 010 .117l.99.057zm-5.705 9.669c3.348-2.888 5.29-6.213 5.702-9.638l-.985-.119c-.376 3.123-2.155 6.237-5.365 9.006l.648.75zM55.96 33.99a29.203 29.203 0 005.868-3.864l-.641-.756a28.212 28.212 0 01-5.67 3.732l.443.888zM8.94 32.619c6.06 3.95 14.346 6.051 22.828 6.292 8.485.241 17.222-1.378 24.195-4.923l-.449-.884c-6.797 3.456-15.363 5.053-23.718 4.816-8.358-.237-16.45-2.308-22.314-6.132l-.542.83zm-2.457-1.836a25.084 25.084 0 002.456 1.835l.544-.829a24.094 24.094 0 01-2.359-1.763l-.64.757zm-5.79-10.3c.18 3.65 2.124 7.237 5.793 10.302l.636-.761c-3.51-2.933-5.275-6.28-5.44-9.59l-.99.05zM.69 19.377v1.082h.991v-1.082h-.99zM12.339 5.058C4.993 8.8.974 13.998.691 19.351l.99.052c.257-4.86 3.93-9.804 11.108-13.462l-.45-.883zM59.363 6.42C53.303 2.469 45.017.368 36.535.128c-8.485-.24-17.222 1.38-24.195 4.93l.45.883C19.585 2.482 28.151.883 36.506 1.12c8.358.237 16.45 2.308 22.315 6.131l.541-.83zM46.64 22.747a10.55 10.55 0 01-3.304 2.49l.43.894a11.542 11.542 0 003.614-2.725l-.74-.66zm.307.822l.028.002.07-.99-.028-.001-.07.989zm-2.26-9.015c1.864 1.204 2.879 2.615 3.173 4.009.291 1.383-.109 2.84-1.256 4.19l.756.642c1.308-1.541 1.835-3.301 1.47-5.037-.364-1.725-1.59-3.336-3.605-4.637l-.538.832zm-19.626-.558c2.889-1.479 6.542-2.16 10.118-2.055 3.578.106 7.024.999 9.507 2.612l.54-.832c-2.677-1.739-6.314-2.662-10.018-2.771-3.706-.11-7.532.594-10.599 2.164l.452.882zm-3.308 9.057c-1.284-1.49-1.61-3.128-1.087-4.678.53-1.573 1.97-3.14 4.395-4.378l-.451-.883c-2.569 1.31-4.243 3.047-4.884 4.944-.649 1.921-.208 3.92 1.275 5.642l.752-.647zm1.917 1.636a9.113 9.113 0 01-1.922-1.642l-.742.658a10.101 10.101 0 002.131 1.82l.533-.836zm19.658.553c-2.904 1.469-6.562 2.15-10.14 2.048-3.58-.103-7.025-.989-9.515-2.6l-.539.833c2.684 1.736 6.321 2.652 10.026 2.758 3.707.106 7.536-.597 10.615-2.155l-.447-.884z" fill="#1B127D"/></svg>