<svg width="555" height="380" viewBox="0 0 555 380" fill="none" xmlns="http://www.w3.org/2000/svg"><g clip-path="url(#clip0_57_387)"><path opacity=".594" d="M549.444 221.198L293.965 366.467c-7.533 4.253-19.762 4.253-27.294 0L11.192 220.591c-3.722-2.126-5.583-4.961-5.583-7.707 0-2.835 1.861-5.582 5.583-7.708L266.671 59.907c7.532-4.252 19.761-4.252 27.294 0l255.479 145.876c7.408 3.429 7.408 11.626 0 15.415z" stroke="#BFC9D1"/><path opacity=".594" d="M549.444 211.13L293.965 356.399c-7.533 4.253-19.762 4.253-27.294 0L11.192 210.524c-3.722-2.127-5.583-4.962-5.583-7.708 0-2.835 1.861-5.582 5.583-7.708L266.671 49.839c7.532-4.252 19.761-4.252 27.294 0l255.479 145.876c7.408 3.429 7.408 11.626 0 15.415z" stroke="#BFC9D1"/><path d="M141.488 283.758l281.331-159.941c8.294-4.682-285.429 162.282-281.331 159.941zm-71.002-39.4l281.331-159.94c8.294-4.683-285.43 162.281-281.33 159.94zm141.183 79.211L493 163.627c8.294-4.682-285.429 162.283-281.331 159.942z" stroke="#BFC9D1" stroke-dasharray="1.64 3.28"/><path d="M350.897 323.462L67.79 163.653c-10.531-5.942 288.31 162.78 283.107 159.809zm71.184-40.09l-282.878-160.76c-10.532-5.943 288.081 163.732 282.878 160.76zm70.535-39.872L208.152 82.802C197.621 76.859 497.82 246.472 492.616 243.5z" stroke="#BFC9D1" stroke-dasharray="1.64 3.69"/><mask id="a" style="mask-type:alpha" maskUnits="userSpaceOnUse" x="189" y="150" width="186" height="108"><path d="M282.218 256.612c50.695 0 91.791-23.667 91.791-52.86 0-29.194-41.096-52.86-91.791-52.86-50.694 0-91.79 23.666-91.79 52.86 0 29.193 41.096 52.86 91.79 52.86z" fill="#1B127D" stroke="#1B127D"/></mask><g mask="url(#a)" stroke="#BFC9D1"><path d="M282.218 256.612c50.695 0 91.791-23.667 91.791-52.86 0-29.194-41.096-52.86-91.791-52.86-50.694 0-91.79 23.666-91.79 52.86 0 29.193 41.096 52.86 91.79 52.86z" fill="#1C0D3F"/><path opacity=".75" d="M282.218 285.185c50.695 0 91.791-23.667 91.791-52.86 0-29.194-41.096-52.86-91.791-52.86-50.694 0-91.79 23.666-91.79 52.86 0 29.193 41.096 52.86 91.79 52.86z"/><path opacity=".5" d="M282.218 313.757c50.695 0 91.791-23.666 91.791-52.859 0-29.194-41.096-52.86-91.791-52.86-50.694 0-91.79 23.666-91.79 52.86 0 29.193 41.096 52.859 91.79 52.859z"/><path opacity=".25" d="M282.218 342.33c50.695 0 91.791-23.666 91.791-52.859 0-29.194-41.096-52.86-91.791-52.86-50.694 0-91.79 23.666-91.79 52.86 0 29.193 41.096 52.859 91.79 52.859z"/></g><path fill-rule="evenodd" clip-rule="evenodd" d="M136.307 112.464c.465-.843 1.162-1.394 2.091-1.685.901-.29 1.772-.203 2.614.262.842.464 1.423 1.161 1.685 2.061.058.175.087.32.116.465h.058l3.311 16.262h.029c.233.784.145 1.539-.261 2.265a2.859 2.859 0 01-1.772 1.452c-.784.232-1.539.145-2.294-.262-.698-.377-1.162-.958-1.395-1.771v-.058c-.029-.029-.029-.058-.029-.087l-4.269-16.059c-.015-.043-.037-.094-.058-.145-.022-.051-.044-.101-.058-.145-.32-.842-.233-1.713.232-2.555zm-.958 32.058c.871-.871 1.917-1.277 3.165-1.248 1.22.029 2.266.493 3.108 1.394.842.9 1.249 1.945 1.22 3.165 0 .348-.058.668-.145.987-.03.469-.069.938-.106 1.404-.035.427-.07.851-.097 1.268a2870.927 2870.927 0 00-1.366 21.082c-.029.319-.058.871-.087 1.626v-.145l-.058 2.178v1.336l-.203 6.156v.087c-.029.639-.261 1.161-.726 1.626-.494.436-1.046.668-1.685.668-.668-.029-1.22-.29-1.626-.755-.465-.465-.668-1.016-.668-1.684v-.291l-.988-7.956c-1.278-10.251-2.033-16.088-2.236-17.511-.175-1.161-.291-2.265-.291-3.368-.029-2.73.407-5.314 1.336-7.783l.146.029c.174-.871.609-1.626 1.307-2.265zm-8.22 4.066c-1.22-.029-2.295.377-3.166 1.219-.668.668-1.104 1.452-1.394 2.353l-.116-.058a22.47 22.47 0 00-.901 3.02c-.348 1.539-.493 3.136-.493 4.762 0 1.103.058 2.236.232 3.368.232 1.423.929 7.26 2.12 17.54l.93 7.956c-.029.059-.029.175-.029.32-.029.639.203 1.19.639 1.684.435.465.958.726 1.626.755.639 0 1.22-.203 1.714-.668.464-.464.697-.987.726-1.626v-.087l.232-6.185c0-.16.007-.32.015-.479.007-.16.014-.32.014-.48.029-.116.029-.261.029-.377l.087-2.178v.145c.029-.755.059-1.307.088-1.597.377-5.633.9-12.661 1.539-21.053.029-.087.029-.203.029-.29.087-.814.145-1.627.203-2.44.087-.319.116-.639.146-.987.058-1.191-.32-2.236-1.162-3.165-.843-.929-1.888-1.394-3.108-1.452z" fill="#FED8C3"/><path d="M127.477 123.847c1.975.058 3.631.813 4.996 2.236 1.336 1.423 1.975 3.107 1.917 5.082v.029l-1.946 22.098c-.058 1.278-.523 2.381-1.365 3.34.058-.814.145-1.627.203-2.44.087-.319.116-.668.145-.987.058-1.191-.348-2.265-1.161-3.165-.843-.9-1.888-1.394-3.108-1.452-1.249-.058-2.295.348-3.166 1.219-.668.668-1.133 1.423-1.336 2.324l-.116-.059a21.329 21.329 0 00-.901 3.021 5.924 5.924 0 01-.435-2.033h-.029a1033.86 1033.86 0 00-.726-16.552c.348.116.726.145 1.132.087a2.957 2.957 0 002.004-1.046c.552-.638.755-1.364.668-2.178v-.058l-.087-8.798a7.428 7.428 0 013.311-.668z" fill="#37474F"/><path d="M137.942 99.742c.186.1.342.236.498.372l10.481 11.971 3.524 2.458s2.068.417 3.116.359c1.048-.058 3.599 1.073 3.553 1.926-.087 1.597-3.286-.098-3.174.706.156 1.117 3.762 3.591 3.437 4.056-.264.382-1.601.619-2.125.648-.524.029-5.268-1.478-6.178-2.086l-.039-.033-.078-.068-17.333-13.293c-.148-.067-.226-.135-.373-.202-.996-.744-1.672-1.699-1.959-2.865-.256-1.202-.079-2.272.601-3.211.649-.904 1.519-1.433 2.679-1.587 1.261-.19 2.374.105 3.37.85z" fill="#FED8C3"/><path d="M122.906 77.455c.038-.04.037-.08.036-.119.293-.712.705-1.349 1.157-1.948 1.322-1.68 3.012-2.783 4.994-3.23a11.613 11.613 0 017.206.346c1.668-.477 3.196-.364 4.625.378 1.31.667 2.238 1.697 2.786 3.089.586 1.391.664 2.757.272 4.137-.429 1.42-1.374 2.58-2.798 3.402.044.194.088.35.132.544.231 1.245.029 2.423-.641 3.615a3.554 3.554 0 01-.413.638c1.013-.146 1.921.141 2.761.821.922.796 1.459 1.797 1.573 3.084a5.319 5.319 0 01-.11 1.646c.739-.139 1.304.471 1.612 1.714.349 1.28.117 2.773-.617 4.475-.734 1.702-3.046 2.94-6.974 3.715-3.506 3.305-8.03 3.744-13.537 1.24-1.437.353-2.526.54-3.229.599-.703.02-1.724-.108-3.02-.306-1.297-.237-2.289-.757-3.054-1.517-.807-.877-1.227-1.921-1.261-3.132-.062-.82.151-1.568.563-2.245.487-.756 1.252-1.364 2.217-1.822-.761-.643-1.214-1.451-1.36-2.464-.107-1.013.182-1.882.825-2.643l.19-.2c.342-.362.879-.73 1.651-1.103.887-.455 1.503-.785 1.771-.988.421-.325.761-.764 1.059-1.28.064-4.695.591-8.19 1.584-10.446z" fill="#1C0D3F"/><path d="M128.485 84.879l1.362-.234c1.124-.384 2.199-1.078 3.303-2.126.876-.845 1.782-2.004 2.68-3.437.673-1.074 1.358-1.758 2.013-2.09.754.37 1.361 1.096 1.86 2.177.706 1.465 1.076 3.488 1.11 6.106.02 2.11-.245 3.799-.796 5.065-.406.872-.859 1.432-1.438 1.722-.616.33-1.787.402-3.512.216l.011 3.205c.124 1.599-.562 2.244-2.136 1.897-.59-.14-1.46-.467-2.607-.943-1.186-.475-1.791-1.123-1.815-1.982l-.002-.078-.017-.586-.012-.43-.198-4.255a2.12 2.12 0 01-1.284.192c-.471-.065-.83-.29-1.151-.593a4.037 4.037 0 01-1.077-2.159c-.14-.817-.003-1.485.452-2.006.454-.521.958-.692 1.664-.594.628.06 1.145.398 1.59.933z" fill="#FED8C3"/><path d="M129.586 90.304a3.322 3.322 0 001.256 1.568c.678.489 2.101 1.035 4.23 1.64l.007-1.134a15.592 15.592 0 01-3.145-.615c-1.303-.433-2.098-.918-2.348-1.459z" fill="#000" fill-opacity=".086"/><path d="M127.514 190.733c.545-.142.792-.325.776-.521l-.049-.618c.164.413.837 1.046 1.991 1.968 1.29.977 2.496 1.731 3.646 2.195 1.73.745 2.612 1.132 2.68 1.159.922.483 1.452.964 1.591 1.476.191.738-.025 1.312-.642 1.787-.619.442-1.579.716-2.91.855a6.69 6.69 0 01-3.687-.653c-.511-.253-1.306-.779-2.417-1.573a18.78 18.78 0 00-2.638-1.458c-.68-.305-1.121-.499-1.291-.583-.446-.259-.733-.563-.889-.878-.159-.348-.189-1.131-.09-2.35.081-1.021.237-1.524.47-1.478l.029.358c.176.15.481.289.85.39.4.099.864.16 1.319.123.36.004.781-.062 1.261-.199z" fill="#1C0D3F"/><path d="M124.689 192.038c-.709-.467-.909-1.132-.64-2.036.23-.903.501-1.454.735-1.73a2.37 2.37 0 011.721-.716 2.37 2.37 0 011.731.695c.355.351.593.781.674 1.251.435.547.633.82.672.898.435.586 1.066 1.131 1.933 1.714a33.401 33.401 0 003.544 2.215c.59.349.867.622.829.818-.078.236-.351.395-.9.516-.587.199-1.254.242-2.039.169-1.02-.073-2.002-.38-2.986-.884-.551-.232-1.181-.621-1.929-1.165-1.574-.697-2.715-1.278-3.345-1.745z" fill="#FED8C3"/><path d="M121.207 154.434l.269-2.137c2.167.111 5.833.331 10.995.622-.19 3.507-.67 10.171-1.399 19.992-2.346 2.217-5.37 2.235-9.153-.021-.542-5.977-.903-10.198-.965-12.629-.081-2.077.002-4.046.253-5.827z" fill="#37474F"/><path d="M130.225 150.032c.841.907 1.23 1.972 1.184 3.196-.045 1.224-.512 2.258-1.418 3.08-.905.822-1.971 1.23-3.195 1.185-1.224-.046-2.257-.512-3.079-1.418-.842-.907-1.231-1.953-1.185-3.177.045-1.224.511-2.257 1.418-3.099.887-.843 1.952-1.231 3.176-1.186 1.224.046 2.257.512 3.099 1.419z" fill="#37474F"/><path d="M130.986 149.177c1.066 1.148 1.558 2.497 1.5 4.046-.057 1.55-.648 2.859-1.795 3.9-1.148 1.066-2.496 1.558-4.046 1.5-1.549-.057-2.858-.648-3.899-1.795-1.065-1.148-1.558-2.472-1.5-4.022.057-1.55.648-2.859 1.796-3.924 1.123-1.067 2.471-1.559 4.021-1.502 1.55.058 2.858.649 3.923 1.797z" fill="#37474F"/><path d="M135.661 99.803c-.794-.56-1.25-1.3-1.409-2.216-.165-.956.016-1.807.575-2.6.559-.795 1.3-1.25 2.255-1.416.956-.166 1.807.015 2.561.581.794.56 1.29 1.294 1.455 2.25.166.955-.015 1.806-.581 2.56-.56.794-1.301 1.25-2.216 1.409-.988.212-1.846-.008-2.64-.568zm2.004 17.002c-.794-.559-1.25-1.3-1.409-2.216-.165-.955.015-1.807.575-2.601.559-.793 1.3-1.25 2.255-1.415.956-.166 1.807.015 2.561.582.793.559 1.29 1.293 1.455 2.249.165.955-.015 1.806-.581 2.56-.56.794-1.301 1.251-2.216 1.409-.995.172-1.846-.008-2.64-.568z" fill="#FFA8A7"/><path d="M134.283 97.623l6.9-.796 1.949 16.905-6.9.795-1.949-16.904z" fill="#FFA8A7"/><path d="M135.345 108.375l.532 3.076c.969.308 2.068.355 3.302.181 1.228-.212 2.458-.663 3.655-1.306.043-.007.078-.053.121-.06-.149-.608-.371-1.639-.738-3.002-1.028.614-2.131 1.043-3.365 1.217a8.565 8.565 0 01-3.507-.106z" fill="url(#paint0_linear_57_387)"/><path d="M133.801 101.783c-.035-.43-.028-1.302.015-2.657a19.36 19.36 0 01-.002-1.386l-.007-.038c-.218-1.032.007-2.021.559-2.949.636-.902 1.485-1.485 2.562-1.671 1.07-.225 2.059 0 2.954.597a3.945 3.945 0 011.65 2.21c.014.077.02.115.072.186l.027.153c.033.193.066.385.054.546l.077-.014.01.513 1.205 6.961c.743 1.773.974 2.881.72 3.242-.248.4-.669.71-1.232.887-.012.16-.87.467-2.592 1.043-1.652.523-3.037.526-4.195.013 0 0-.508-.189-1.447-.581-.702-.393-.931-1.027-.648-1.908.263-.996.362-2.716.218-5.147z" fill="url(#paint1_linear_57_387)"/><path d="M135.345 108.375l.532 3.076c.969.308 2.068.355 3.302.181 1.228-.212 2.458-.663 3.655-1.306.043-.007.078-.053.121-.06-.149-.608-.371-1.639-.738-3.002-1.028.614-2.131 1.043-3.365 1.217a8.565 8.565 0 01-3.507-.106z" fill="#000" fill-opacity=".11"/><path d="M133.801 101.783c-.035-.43-.028-1.302.015-2.657a19.36 19.36 0 01-.002-1.386l-.007-.038c-.218-1.032.007-2.021.559-2.949.636-.902 1.485-1.485 2.562-1.671 1.07-.225 2.059 0 2.954.597a3.945 3.945 0 011.65 2.21c.014.077.02.115.072.186l.027.153c.033.193.066.385.054.546l.077-.014.01.513 1.205 6.961c.743 1.773.974 2.881.72 3.242-.248.4-.669.71-1.232.887-.012.16-.87.467-2.592 1.043-1.652.523-3.037.526-4.195.013 0 0-.508-.189-1.447-.581-.702-.393-.931-1.027-.648-1.908.263-.996.362-2.716.218-5.147z" fill="#ED26B7"/><path d="M142.3 143.402c1.161 1.052 1.768 2.352 1.845 3.901.077 1.549-.398 2.903-1.45 4.04-1.051 1.161-2.351 1.768-3.9 1.845-1.548.077-2.902-.398-4.039-1.45-1.161-1.051-1.766-2.327-1.843-3.876-.078-1.549.397-2.903 1.448-4.064 1.026-1.16 2.327-1.767 3.875-1.844 1.548-.077 2.903.397 4.064 1.448zm-.308-23.039c1.471 1.332 2.24 2.979 2.337 4.941.098 1.962-.503 3.678-1.836 5.118-1.332 1.471-2.979 2.239-4.94 2.337-1.962.098-3.677-.504-5.117-1.837-1.471-1.331-2.238-2.948-2.335-4.91-.098-1.962.503-3.677 1.835-5.148 1.3-1.47 2.947-2.239 4.909-2.336 1.961-.098 3.676.504 5.147 1.835z" fill="#263238"/><path d="M144.19 147.494l-11.271.69a813.492 813.492 0 00-2.909-22.155l14.398-.711-.218 22.176z" fill="#263238"/><path d="M132.596 149.137l.252-2.138c2.166.093 5.833.282 10.996.529-.161 3.507-.584 10.173-1.23 19.997-2.327 2.236-5.349 2.279-9.148.095-.592-5.971-.989-10.187-1.11-12.614-.062-2.117.005-4.086.24-5.869z" fill="#37474F"/><path d="M141.592 144.663c.849.899 1.246 1.961 1.211 3.185-.036 1.224-.493 2.261-1.392 3.091-.899.849-1.96 1.246-3.184 1.211-1.224-.035-2.261-.493-3.09-1.392-.849-.899-1.247-1.941-1.212-3.165.035-1.224.493-2.261 1.392-3.11.88-.85 1.941-1.247 3.165-1.212 1.224.035 2.261.493 3.11 1.392z" fill="#37474F"/><path d="M142.351 143.779c1.075 1.139 1.578 2.483 1.534 4.033-.045 1.55-.624 2.863-1.762 3.914-1.139 1.075-2.482 1.578-4.032 1.533-1.549-.044-2.862-.623-3.913-1.762-1.075-1.138-1.578-2.458-1.534-4.008.045-1.55.624-2.862 1.763-3.938 1.114-1.076 2.457-1.579 4.007-1.534 1.549.044 2.862.624 3.937 1.762z" fill="#37474F"/><path d="M139.502 184.912c.549-.128.8-.305.79-.5l-.034-.619c.154.416.809 1.067 1.939 2.018 1.263 1.009 2.448 1.794 3.586 2.288 1.708.789 2.579 1.199 2.646 1.228.909.506 1.426 1 1.552 1.516.171.742-.06 1.31-.69 1.736-.63.426-1.597.674-2.93.779a6.69 6.69 0 01-3.666-.749c-.504-.267-1.285-.812-2.375-1.635a16.79 16.79 0 00-2.597-1.525 39.116 39.116 0 01-1.242-.619c-.439-.27-.718-.581-.865-.9-.15-.351-.16-1.134-.028-2.317.108-1.018.277-1.517.509-1.464l.019.358c.172.154.474.301.839.412.398.109.859.182 1.315.157.36.013.782-.042 1.232-.164z" fill="#1C0D3F"/><path d="M136.65 186.147c-.696-.484-.879-1.154-.586-2.05.253-.897.538-1.44.779-1.709a2.364 2.364 0 011.739-.671c.666.013 1.249.26 1.71.74.346.36.573.795.642 1.267.42.558.61.836.648.915.419.596 1.035 1.158 1.886 1.763a33.185 33.185 0 003.483 2.304c.581.365.85.645.807.84-.084.233-.361.385-.912.491-.592.184-1.259.21-2.042.116-1.017-.099-1.991-.432-2.961-.922-.544-.285-1.163-.69-1.897-1.253-1.553-.737-2.678-1.348-3.296-1.831z" fill="#FED8C3"/><path d="M121.498 118.33a11.86 11.86 0 012.317-3.845c2.081-2.354 4.672-3.57 7.734-3.726 3.061-.117 5.73.904 8.046 3.024a11.065 11.065 0 013.06 4.985c0 .039.157.589.47 1.688.314 1.059.51 2.237.588 3.532.313 3.061-.629 5.729-2.789 8.005-2.159 2.275-4.986 3.413-8.479 3.412-2.709-.001-5.142-.394-7.262-1.258-.471-.157-.942-.314-1.373-.55a.87.87 0 00-.197-.118c-4.16-1.649-4.943-6.555-2.311-14.599l.157-.51s0-.04.039-.04z" fill="#37474F"/><path d="M120.218 120.699c1.324-3.44 2.988-5.707 5.068-6.727 8.357-4.761 14.406-2.68 18.07 6.204a30.939 30.939 0 011.889 6.842c1.208 7.75 1.887 12.702 2 14.819.188 3.477.714 13.117 1.542 28.917l-.643.983a13.486 13.486 0 01-2.383 2.192c-3.101 2.191-7.26 3.4-12.515 3.701-5.256.3-9.755-.419-13.459-2.159-1.853-.87-3.176-1.777-3.969-2.685.647-17.35 1.218-29.143 1.711-35.38.417-5.406 1.024-9.752 1.743-13.079.265-1.247.568-2.456.946-3.628z" fill="#1B127D"/><path fill-rule="evenodd" clip-rule="evenodd" d="M137.329 177.29c.756-.188 1.475-.339 2.193-.49.115-3.894-.412-13.911-1.541-30.052-.565-8.014-1.13-15.687-1.733-22.945.301 5.783.6 15.876.861 30.24.223 12.739.297 20.488.22 23.247zm6.768-2.228c.681-.34 1.286-.68 1.853-1.095-.187-6.88-.827-16.104-1.92-27.595-.49-5.746-1.206-12.89-2.149-21.396a661.29 661.29 0 011.768 32.207c.225 7.144.374 13.079.448 17.879zm-13.762 2.718c-.681 0-1.475-.038-2.382-.114.154-8.921.383-17.161.65-24.759.495-14.213.989-23.322 1.557-27.291-.152 3.326-.266 7.975-.344 13.948-.117 12.058.069 24.797.519 38.216zm-10.321-2.158c.642.303 1.247.568 1.814.757-.45-11.378-.22-23.852.653-37.346.304-4.536.684-9.186 1.176-13.948-1.212 8.315-2.122 17.501-2.692 27.48a589.674 589.674 0 00-.951 23.057z" fill="#000" fill-opacity=".2"/><path d="M132.473 126.722c-3.108.261-5.954-.058-8.51-.901-2.585-.871-3.95-1.655-4.124-2.323-.175-.668-.32-1.568-.436-2.671l24.949-1.51c.116 1.132-.29 2.178-1.249 3.165a12.799 12.799 0 01-3.253 2.41c-1.888.988-4.327 1.597-7.377 1.83z" fill="url(#paint2_linear_57_387)"/><path d="M123.965 125.784c-2.558-.876-3.926-1.637-4.104-2.329-.177-.646-.319-1.571-.422-2.636l24.919-1.53c.146 1.111-.283 2.187-1.247 3.135-.963.994-2.054 1.759-3.27 2.387-1.864 1.012-4.31 1.619-7.337 1.82-3.148.342-5.981.029-8.539-.847z" fill="#ED26B7"/><path d="M135.552 92.688c1.713.261 3.107 1.133 4.153 2.556.349.464.639.987.871 1.51.349.522.668 1.045.93 1.568.087.174.174.348.232.522l.174.436c.785 1.336 1.133 2.701 1.046 4.153-.058.9-.29 1.8-.697 2.642.29 2.12.697 3.688 1.191 4.704.552 1.104.726 2.207.581 3.34.029.029.058.058.058.087.319.465.581.929.726 1.423.377 1.045.465 2.178.261 3.368-.087.552-.261 1.046-.522 1.452-.552.959-1.453 1.597-2.702 1.975-1.8 1.249-5.518 2.004-11.124 2.265-5.663.261-9.352-.668-11.066-2.759a12.474 12.474 0 01-.406-1.452c-.175-1.016-.146-1.858.087-2.526 1.191-2.352 1.22-5.517.087-9.496-1.162-4.007-1.481-6.621-.988-7.869a4.77 4.77 0 01.262-1.017c.029-.087.029-.145.029-.174.813-2.265 3.398-4.181 7.755-5.779a2.85 2.85 0 01.464-.145c0-.029.03-.029.03-.029 1.016-.261 2.323-.522 3.921-.755 1.365-.232 2.904-.261 4.647 0z" fill="#ED26B7"/><path d="M144.126 114.256c.17.271.297.504.424.697-3.309 2.499-7.632 3.45-12.929 2.891 5.937-.199 10.133-1.383 12.505-3.588z" fill="#000" fill-opacity=".118"/><path d="M127.262 93.623s-.002-.079-.044-.235c.156-.042.311-.124.505-.206 1.208-.417 3.203-.654 5.947-.749.121.154.201.231.201.231.166.428.333.935.423 1.521.177.977-.005 1.647-.548 1.972-.658.445-1.559.502-2.702.212-.986-.254-1.818-.669-2.496-1.204a3.83 3.83 0 01-1.286-1.543z" fill="#FED8C3"/><path d="M126.951 108.835c-1.34-.678-2.173-1.524-2.533-2.497 2.83 2.06 5.737 2.902 8.687 2.568-2.19.946-4.231.91-6.154-.071z" fill="#000" fill-opacity=".086"/><path d="M120.246 122.197c-.592-.769-.808-1.612-.688-2.533.125-.961.549-1.72 1.319-2.312.769-.593 1.611-.809 2.572-.684.961.125 1.72.55 2.272 1.314.592.769.809 1.612.684 2.573-.126.961-.59 1.715-1.354 2.268-.769.592-1.612.808-2.533.688-.921-.12-1.68-.544-2.272-1.314z" fill="#FFA8A7"/><path d="M119.189 99.618l7.112.082-.24 20.861-7.112-.082.24-20.861z" fill="#FED8C3"/><path d="M122.977 96.368c1.081-.016 2.031.336 2.8 1.119.73.7 1.125 1.53 1.209 2.455l.025.202-.015.119c-.004.205-.011.382-.019.558l.058-.007-.056.504.089 7.391c.403 1.852.451 2.958.14 3.289-.307.36-.779.564-1.414.642a1.822 1.822 0 00-.41-.242c-.712-.323-1.641-.501-2.877-.554-1.502-.079-2.46-.02-2.904.181-.472.204-.689.348-.649.431.01.086-.4-.156-1.198-.702-.799-.545-.945-1.259-.468-2.137.474-.906.856-2.562 1.146-4.968.169-1.483.345-2.675.466-3.597.054-.27.084-.508.145-.72-.015-1.08.34-2.002 1.091-2.796.783-.77 1.728-1.178 2.841-1.168z" fill="#ED26B7"/><path d="M118.773 113.605l.023-3.121c.905-.423 1.98-.649 3.226-.679 1.246.009 2.533.253 3.818.691.043 0 .086.04.129.04-.048.624-.098 1.677-.194 3.081a9.68 9.68 0 00-3.518-.689c-1.245-.009-2.407.256-3.484.677z" fill="#000" fill-opacity=".11"/><path d="M118.773 113.605l.023-3.121c.905-.423 1.98-.649 3.226-.679 1.246.009 2.533.253 3.818.691.043 0 .086.04.129.04-.048.624-.098 1.677-.194 3.081a9.68 9.68 0 00-3.518-.689c-1.245-.009-2.407.256-3.484.677z" fill="#ED26B7"/><path d="M126.088 118.234c.186.101.342.237.498.372l10.481 11.971 3.524 2.459s2.067.416 3.116.358c1.048-.058 3.599 1.073 3.553 1.926-.087 1.597-3.286-.098-3.174.706.155 1.117 3.761 3.591 3.437 4.056-.264.382-1.601.619-2.126.648-.524.029-5.267-1.478-6.177-2.085l-.039-.034-.078-.068-17.334-13.293c-.147-.067-.225-.135-.372-.202-.997-.744-2.026-1.463-2.313-2.63-.148-.693-.153-2.714 0-3.319.113-.445.661-1.973.948-2.371.65-.904 1.685-.32 2.845-.474 1.261-.189 2.214 1.237 3.211 1.98z" fill="#FED8C3"/><path d="M436.223 190.19c-1.797-2.272-4.761-1.12-6.999-.438l-.461 4.589s.003.035-.03.037c-.002.267-1.068 3.855-1.051 4.533.008.308.867.441 1.487-1.084.078 1.804-.12 2.978.306 3.449.688.762 1.905.272 2.857.318.952.045 1.557-2.405 2.278-3.116.656-.706 1.035-2.816 1.043-3.832-.004-.035.026-.071.023-.106l-.009-.105.556-4.245z" fill="#DDAD92"/><path d="M439.83 178.665c.066-.131.099-.263.132-.395.263-.888.263-1.776-.033-2.632l-.197 1.58c0 .131 0 .263-.033.361v.099c-.197 1.185-.789 2.106-1.743 2.797-.986.69-2.071.921-3.255.723-1.184-.197-2.105-.789-2.762-1.743-.395-.56-.658-1.152-.757-1.744l-2.992 14.771.066.033c1.907 2.435 4.373 2.994 7.365 1.744h.099l4.11-15.594z" fill="#20CA8B"/><path d="M438.647 151.458c-1.151-.197-2.236.033-3.19.724-.987.691-1.578 1.612-1.776 2.763-.033.198-.066.428-.098.625l-.066-.032-2.434 21.022.033.033c-.033.361 0 .723.066 1.052.099.592.362 1.185.756 1.744.691.987 1.612 1.546 2.763 1.743 1.183.198 2.269-.032 3.255-.723.954-.691 1.545-1.612 1.743-2.797v-.098c.033-.132.033-.231.033-.362l.197-1.579 2.17-18.818c.033-.099.066-.231.099-.329.197-1.119-.033-2.204-.724-3.191-.69-.987-1.644-1.579-2.827-1.777z" fill="#20CA8B"/><path fill-rule="evenodd" clip-rule="evenodd" d="M424.591 246.802c-1.105-1.809 1.699-3.201 5.595-5.243 3.896-2.042 7.333-7.376 7.333-7.376l7.096-.102s3.185 5.908 3.185 7.478c0 1.57-5.775 2.822-5.775 2.822l-4.506 1.473-10.042 3.183s-2.598-.166-2.886-2.235z" fill="#2A2A2A"/><path d="M446.44 197.02c.015-2.837.075-5.501.129-7.906l-13.807-.31-.812 3.764 2.76 47.256s4.502.748 7.554 0c3.051-.748 3.52-2.759 3.524-2.931.271-16.413.471-29.647.652-39.873z" fill="#263238"/><path fill-rule="evenodd" clip-rule="evenodd" d="M436.074 254.811c-1.106-1.809 1.782-3.732 5.678-5.774s6.667-7.423 6.667-7.423l7.095-.102s3.186 5.908 3.186 7.478c0 1.57-3.963 2.834-3.963 2.834l-5.184 1.837-7.801 2.718s-5.39.501-5.678-1.568z" fill="#2A2A2A"/><path d="M460.14 185.812c.049-.341.049-.681.097-1.022.145-3.653-1.021-6.867-3.496-9.594-2.475-2.727-5.531-4.138-9.17-4.332-3.639-.145-6.84 1.025-9.556 3.509-2.717 2.485-4.123 5.602-4.267 9.255v.39c-.097.584-.145 1.169-.194 1.753-.144 3.799.973 7.013 3.351 9.643 2.426 2.629 5.629 3.992 9.51 3.991 3.056-.001 5.773-.489 8.198-1.464 1.067-.292 2.038-.828 3.008-1.51 1.455-1.511 2.23-3.021 2.327-4.579.097-1.51.145-2.387.145-2.63.048-1.461.096-2.63.047-3.41z" fill="#37474F"/><path d="M459.415 203.967c.144-2.927.345-10.033.508-12.514l-13.805 3.453-.982 3.851.764 48.597s4.615.943 7.268 0c2.653-.942 3.773-2.081 3.785-2.258 1.016-16.93 1.817-30.581 2.462-41.129z" fill="#37474F"/><path d="M442.113 156.778l.058-.335c.199-1.148-.01-2.22-.674-3.222-.721-.963-1.652-1.568-2.801-1.767-1.15-.199-2.23.058-3.232.722-1.011.712-1.616 1.643-1.815 2.791-.033.192-.066.383-.06.631l-.096-.017-2.456 21.017.096.017c-.078 1.021.203 1.957.797 2.8.673.954 1.604 1.559 2.753 1.758 1.197.207 2.278-.049 3.232-.722.955-.673 1.56-1.603 1.767-2.799l.017-.096c.025-.144.05-.287.018-.391l2.396-20.387z" fill="#20CA8B"/><path d="M458.587 187.94c.048-.343.048-.685.048-1.027.146-3.665-1.028-6.89-3.52-9.626-2.492-2.736-5.569-4.153-9.233-4.298-3.664-.146-6.887 1.028-9.622 3.521-2.735 2.493-4.15 5.622-4.296 9.287v.391c-.097.586-.146 1.173-.195 1.759-.145 3.812.979 7.037 3.423 9.676 2.443 2.638 5.618 3.957 9.526 3.955 3.077 0 5.813-.49 8.255-1.468 1.074-.294 2.051-.831 3.028-1.565 1.465-1.515 2.246-3.03 2.343-4.545.097-1.515.146-2.395.146-2.639.097-1.467.146-2.64.097-3.421z" fill="#37474F"/><path d="M443.119 149.583c-.033-.526-1.085-.658-3.124-.362-2.072.329-3.716 1.415-4.932 3.191-1.217 1.777-1.842 4.014-1.809 6.679 0 2.664-.493 12.731-1.48 30.266 3.618 2.764 8.714 4.244 15.258 4.408 2.664.066 5.13-.098 7.464-.559 2.204-.395 4.711-1.178 5.697-1.869l.362-22.075c0-1.612-.764-3.69-.501-6.717.197-2.5.164-4.145-.033-5.001-1.02-2.928-4.275-5.395-9.832-7.402a4.191 4.191 0 01-1.184.856c-1.644.756-3.157.69-4.571-.198-1.216-.658-1.644-1.085-1.315-1.217z" fill="#A3FFB0"/><path d="M450.54 149.415c-2.171-1.266-4.803-1.466-7.992-.652-.688.23-1.33.608-1.83 1.184a4.67 4.67 0 00-1.113 1.882c-.21.728-.429 1.895-.558 3.455-.066.829-.13 1.561-.144 2.244l1.889-1.671 1.691.865 2.348-.245 1.551 2.962c2.961-1.6 5.054-3.706 6.231-6.368-.168-1.322-.538-2.355-1.207-3.053l-.866-.603z" fill="url(#paint3_linear_57_387)"/><path d="M446.476 159.587c2.961-1.6 5.054-3.706 6.231-6.368-.168-1.322-.537-2.355-1.206-3.052l-.963-.655c-2.171-1.265-4.802-1.514-7.992-.651-.688.23-1.331.607-1.831 1.183a4.681 4.681 0 00-1.112 1.882c-.21.728-.429 1.896-.559 3.456-.065.829-.129 1.56-.143 2.244l1.889-1.671 1.691.865 2.348-.245 1.647 3.012z" fill="#000" fill-opacity=".518"/><path d="M442.411 153.058c.02 1.417.044 2.638.122 3.616 5.719-2.764 8.302-4.958 7.747-6.483-1.584-1.302-3.87-1.691-6.86-1.117-.659 1.207-.979 2.519-1.009 3.984z" fill="#DDAD92"/><path d="M446.845 124.846c.58-.446 1.258-.654 2.031-.665 1.014-.068 1.892.281 2.63.964.618.733.875 1.53.732 2.435.846-.138 1.538-.143 2.119.021.665.2 1.183.654 1.635 1.316.278.511.435 1.03.433 1.6-.003.57-.173 1.071-.465 1.579.611 0 1.122.332 1.527.916.359.505.514.983.465 1.475a2.29 2.29 0 01-.44 1.333c-.3.386-.648.654-1.127.808.376.138.679.403.871.838.232.432.303.875.251 1.327a2.634 2.634 0 01-.607 1.262 2.24 2.24 0 01-1.173.73c.265.308.454.703.527 1.186.076.525-.016.979-.315 1.365-.3.387-.687.698-1.124.849a2.562 2.562 0 01-1.462.057 1.87 1.87 0 01-.475 1.417c-.341.389-.811.665-1.411.827-.399.108-.894.019-1.44-.23-.589-.286-.978-.626-1.167-1.021-.235-.473-.935-.589-2.105-.429-.162.011-.36.105-.681.167-.238.098-.4.109-.522.117-3.045.122-5.939-.54-8.679-1.944a13.369 13.369 0 01-3.14-2.519c-.878-.348-1.327-.97-1.427-1.859-.095-.808.148-1.435.691-1.838-.381-.219-.73-.562-.919-.956a2.481 2.481 0 01-.333-1.322c.011-.449.184-.908.403-1.289.259-.384.564-.69.996-.922a1.319 1.319 0 01-.546-.859c-.105-.36-.046-.69.095-1.025.181-.338.41-.557.724-.74a1.574 1.574 0 011.045-.193c-.427-.297-.656-.689-.773-1.21-.075-.525.016-.979.316-1.365l.038-.043c.381-.392.813-.625 1.34-.66a2.237 2.237 0 011.451.391c-.033-.486.059-.94.316-1.365a2.184 2.184 0 011.078-.927 2.256 2.256 0 011.459-.097c.497.129.919.345 1.27.729-.046-.078.102-.292.481-.724.148-.214.378-.433.689-.657a3.062 3.062 0 011.756-.525 2.917 2.917 0 011.737.413c.546.249.941.67 1.225 1.262z" fill="#263238"/><path d="M448.742 138.468c-.453-1.181-.727-1.822-.726-1.87a12.013 12.013 0 01-.48-3.714c-2.014-1.08-4.335-1.583-7.017-1.415-2.388.128-4.105.615-5.103 1.464a7.632 7.632 0 00-.223 1.016c-.057.29-.065.582-.122.873-.066.631-.18 1.212-.196 1.796a33.938 33.938 0 00-.219 4.327c-.007.244.036.439.029.683.111 1.269.316 2.638.664 4.108.309 1.129.722 2.017 1.336 2.667.095.1.237.25.332.302l.287.203.047.05s.049.001.047.05c.049.001.048.05.096.051l.049.001.432.207c.24.104.482.16.773.217a14.98 14.98 0 002.97-.063c.097.003.245-.042.342-.039l-.159 3.94c-.215 2.428 1.179 3.052 4.084 1.867.198-.14.494-.278.84-.463 2.127-1.206 3.221-2.052 3.238-2.636l.282-8.318.467.695c.524.404 1.301.474 2.332.163.785-.222 1.436-.885 2-1.892.615-1.102.741-2.121.327-3.01-.321-.69-.748-1.092-1.377-1.207-.097-.003-.242-.055-.34-.009-.585.032-1.126.211-1.527.638-.401.427-.701.711-.851.853-.349.282-.549.471-.552.569-.002.097-.244.042-.679-.068-.434-.158-.901-.853-1.403-2.036z" fill="#DDAD92"/><path d="M444.749 150.165c1.572-.54 2.658-1.093 3.162-1.712.554-.666.963-1.385 1.328-2.25-.462.863-1.161 1.476-1.999 1.89-.592.276-1.672.635-3.239.98l-2.201.425.067 1.073c.73-.028 1.658-.148 2.882-.406z" fill="#000" fill-opacity=".149"/><path d="M450.568 136.773c-.47-1.231-.98-1.05-1.533.638.031 2.485-.215 4.084-.792 4.847-.419.524-1.035.896-1.851 1.166-.866.267-1.876.288-2.981.062-.704-.117-1.807-.392-3.312-.726-.653-.116-1.312-.037-1.973.139-1.121.358-1.783.534-1.884.532a1.398 1.398 0 01-.758.027.693.693 0 01-.541-.502c-.329-.886-.439-2.35-.334-4.294l-.325-1.032.023 2.776c-.006 2.045.006 3.409.138 4.094.116 1.269.245 2.052.387 2.397.23.785.668 1.382 1.313 1.79.792.557 1.894.881 3.306.969 1.511.14 3.129.039 4.857-.351 3.1-.692 4.897-1.761 5.392-3.208.548-1.543.845-3.092.937-4.599.086-1.264.21-2.088.371-2.424.21-.287.03-1.071-.44-2.301z" fill="#263238"/><path d="M453.076 140.217c2.452 1.25 4.555-.919 6.217-2.394l-1.42-4.146s-.016-.028.011-.043c-.104-.231-.604-3.751-.888-4.33-.129-.263-.923-.038-.855 1.525-.782-1.527-1.076-2.619-1.63-2.857-.897-.385-1.753.52-2.592.858-.84.338-.392 2.693-.733 3.592-.287.87.222 2.842.618 3.722.016.029.005.072.022.101l.049.086 1.201 3.886z" fill="#DDAD92"/><path d="M461.636 161.672c-.648 1.004-1.528 1.647-2.668 1.915-1.17.254-2.279.065-3.283-.584-1.004-.648-1.616-1.514-1.87-2.684-.283-1.184-.093-2.293.542-3.268l.339-.495-.09-.042 3.801-5.941c1.252-2.385 9.016-.928 7.426 4.617l-.027.059s-.014.03-.044.016l-.014.03-.014.03-.256.316-3.673 5.747c-.042.089-.097.208-.169.284z" fill="#20CA8B"/><path d="M466.257 152.128c.24 1.172.061 2.246-.566 3.235-.658 1-1.583 1.641-2.754 1.88-1.171.239-2.214.049-3.214-.61-1.031-.647-1.77-1.548-1.998-2.689-.104-.349-.025-.115-.084-.343l-5.996-16.584c3.165.767 5.52-.17 7.053-2.839l6.92 15.943c.075.113.119.237.174.392.173.392.315.796.385 1.19l.022.062s.011.031-.02.042l.011.031.011.031.038.405-.06-.467c.033.093.076.217.078.321z" fill="#20CA8B"/></g><defs><linearGradient id="paint0_linear_57_387" x1="141.064" y1="109.677" x2="140.379" y2="103.809" gradientUnits="userSpaceOnUse"><stop stop-color="#FA1E58"/><stop offset="1" stop-color="#FECD85"/></linearGradient><linearGradient id="paint1_linear_57_387" x1="134.825" y1="100.728" x2="139.464" y2="107.579" gradientUnits="userSpaceOnUse"><stop stop-color="#6D6AFE"/><stop offset="1" stop-color="#3FB0F7"/></linearGradient><linearGradient id="paint2_linear_57_387" x1="139.241" y1="119.572" x2="139.233" y2="123.998" gradientUnits="userSpaceOnUse"><stop stop-color="#6D6AFE"/><stop offset="1" stop-color="#3FB0F7"/></linearGradient><linearGradient id="paint3_linear_57_387" x1="439.718" y1="148.069" x2="439.368" y2="158.315" gradientUnits="userSpaceOnUse"><stop stop-color="#94E69A"/><stop offset="1" stop-color="#17ADC9"/></linearGradient><clipPath id="clip0_57_387"><path fill="#fff" transform="translate(0 .5)" d="M0 0h555v379H0z"/></clipPath></defs></svg>